<svg width="396" height="172" viewBox="0 0 396 172" fill="none" xmlns="http://www.w3.org/2000/svg">
<g clip-path="url(#clip0_105_2)">
<path d="M157.562 0H9.6664C4.32779 0 0 4.32779 0 9.6664V161.429C0 166.767 4.32779 171.095 9.6664 171.095H157.562C162.901 171.095 167.229 166.767 167.229 161.429V9.6664C167.229 4.32779 162.901 0 157.562 0Z" fill="white"/>
<path d="M90.7455 30.8283L120.522 61.8011C120.366 62.8936 120.4 64.0382 120.678 65.1828C121.84 69.9171 126.643 72.8132 131.378 71.6513C136.112 70.4894 139.008 65.6857 137.846 60.9513C136.684 56.2343 131.898 53.3382 127.181 54.4828L96.4337 22.4695C93.9191 19.8509 90.1559 18.7583 86.6181 19.6254L40.7486 30.9497C37.2109 31.8168 34.3841 34.5395 33.3783 38.0252L19.4874 86.0278C19.2966 86.6868 19.2793 87.3978 19.4527 88.0568C19.6088 88.7158 19.9556 89.3401 20.4412 89.843C21.4297 90.8662 22.8344 91.2824 24.2218 90.9356L25.453 90.6234C27.4647 90.1205 29.0602 88.5944 29.6324 86.6001L42.3094 42.7769C42.7083 41.4243 43.7835 40.3838 45.1535 40.0369L86.965 29.7184C88.3176 29.4063 89.7744 29.8225 90.7455 30.8283ZM130.008 57.4136C132.28 57.7084 134.239 59.3559 134.811 61.697C134.881 61.9745 134.933 62.2693 134.95 62.5468C134.985 62.8936 134.985 63.2405 134.95 63.5873C134.725 65.9458 133.06 67.9922 130.632 68.5991C127.979 69.2581 125.291 67.9228 124.129 65.5643C123.955 65.2174 123.817 64.8359 123.713 64.4371C122.95 61.3849 124.822 58.2807 127.892 57.5176C128.62 57.3442 129.331 57.3095 130.008 57.4136Z" fill="#0D3934"/>
<path d="M134.17 132.712L148.061 84.6925C148.251 84.0161 148.269 83.3051 148.113 82.6288C147.939 81.9524 147.61 81.3281 147.124 80.8252C146.136 79.7847 144.696 79.3858 143.309 79.7153L141.609 80.1315C139.945 80.5477 138.609 81.8137 138.141 83.4612L125.273 127.926C124.892 129.227 123.851 130.215 122.551 130.545L80.5311 140.915C79.2305 141.245 77.8431 140.828 76.9066 139.857L48.3964 109.578C48.7086 108.26 48.7259 106.838 48.3791 105.433C47.2172 100.699 42.4135 97.803 37.6791 98.9649C32.9448 100.127 30.0486 104.931 31.2106 109.665C32.2684 113.948 36.3091 116.74 40.5752 116.359L71.2185 148.233C73.6984 150.817 77.3922 151.875 80.8606 151.025L126.938 139.649C130.407 138.817 133.181 136.146 134.17 132.712ZM36.7426 112.388C35.9623 111.902 35.3033 111.226 34.835 110.411C34.5749 109.96 34.3668 109.457 34.2454 108.937C34.2281 108.885 34.2107 108.815 34.2107 108.763C33.5691 105.763 35.4247 102.763 38.4248 102.017C41.477 101.254 44.5812 103.127 45.3443 106.196C45.4136 106.491 45.4657 106.786 45.483 107.064C45.7258 109.821 43.9396 112.422 41.1648 113.099C39.5867 113.48 38.0086 113.185 36.7426 112.388Z" fill="#0D3934"/>
<path d="M78.5021 110.012L61.9752 42.6729C61.6804 41.4936 63.8828 40.4184 65.2181 41.0948L68.357 42.6902C70.8716 43.9562 72.5191 45.8465 73.0567 48.0836L89.4622 114.919C89.757 116.099 87.5546 117.174 86.2193 116.498L82.5254 114.625C80.3924 113.532 78.9703 111.919 78.5021 110.012Z" fill="#0D3934"/>
<path d="M59.8248 87.0683L49.593 45.3782C49.4196 44.6499 51.6567 43.7654 52.9054 44.0776L55.8362 44.8233C58.1773 45.4129 59.634 46.4881 59.9635 47.8581L70.1259 89.2534C70.2994 89.9818 68.0622 90.8662 66.8136 90.554L63.3626 89.6869C61.3509 89.1667 60.1196 88.2649 59.8248 87.0683Z" fill="#0D3934"/>
<path d="M108.972 124.076L98.7402 82.386C98.5668 81.6576 100.804 80.7732 102.052 81.0853L104.983 81.831C107.324 82.4207 108.781 83.4959 109.111 84.8659L119.273 126.261C119.446 126.989 117.209 127.874 115.961 127.562L112.51 126.695C110.498 126.157 109.267 125.255 108.972 124.076Z" fill="#0D3934"/>
<path d="M96.3643 122.411L79.8374 55.0897C79.5426 53.9105 81.7451 52.8353 83.0804 53.5116L86.2193 55.1071C88.7339 56.3731 90.3814 58.2633 90.919 60.5004L107.324 127.336C107.619 128.516 105.417 129.591 104.082 128.914L100.388 127.042C98.2546 125.932 96.8326 124.302 96.3643 122.411Z" fill="#0D3934"/>
<path d="M186.561 62.4422V22.7993H201.906C214.877 22.7993 221.188 30.5661 221.188 42.6201C221.188 54.6477 214.878 62.4408 201.906 62.4408L186.561 62.4422ZM196.837 53.435H201.368C207.597 53.435 210.375 49.8482 210.375 42.6209C210.375 35.3666 207.597 31.7259 201.368 31.7259H196.837V53.435ZM226.183 62.4422V22.7993H236.457V62.4422H226.183ZM261.274 62.9816C249.624 62.9816 241.29 54.8642 241.29 42.7286C241.29 30.3504 249.893 22.2327 261.866 22.2327C269.822 22.2327 276.24 25.7655 279.719 31.6176L270.712 36.4179C268.959 32.7773 265.804 31.0243 261.866 31.0243C255.907 31.0243 251.538 35.1504 251.538 42.4587C251.538 49.3085 255.421 54.2167 262.271 54.2167C266.073 54.2167 270.28 52.6795 271.548 48.2028H262.325V40.0855H281.149V62.4413H273.193V58.1804C270.712 61.1199 266.91 62.9816 261.274 62.9816ZM287.087 62.4422V22.7993H297.362V62.4422H287.087ZM329.297 22.7993V31.7256H320.344V62.4419H310.177V31.7256H301.196V22.7993H329.297ZM360.37 62.4422L357.808 55.1069H341.951L339.416 62.4422H328.98L343.569 22.7993H356.217L370.806 62.4422H360.37ZM344.89 46.6395H354.868L349.879 32.292L344.89 46.6395ZM384.404 53.435H396V62.4422H374.129V22.7993H384.404L384.404 53.435Z" fill="white"/>
<path d="M186.561 120.816V72.498H199.085V120.816H186.561ZM241.526 72.498H254.05V120.816H239.16L220.72 89.4585V120.816H208.197V72.498H222.922L241.527 103.691L241.526 72.498ZM263.128 120.816V72.498H281.83C297.641 72.498 305.332 81.9644 305.332 96.6564C305.332 111.316 297.641 120.815 281.83 120.815L263.128 120.816ZM275.652 109.838H281.174C288.767 109.838 292.153 105.466 292.153 96.6574C292.153 87.8155 288.767 83.3781 281.174 83.3781H275.652V109.838ZM340.773 83.3781H323.944V91.2668H338.933V102.048H323.944V109.838H340.773V120.817H311.422V72.4981H340.773V83.3781ZM343.475 120.816L362.342 95.6382L343.803 72.498H359.021L369.737 86.5004L380.452 72.498H395.638L377.133 95.6382L396 120.816H380.025L369.737 105.926L359.449 120.816H343.475Z" fill="white"/>
<path d="M201.81 155.059H198.532L197.491 143.121L193.479 155.059H191.353L187.341 143.121L186.288 155.059H183L184.326 139.22H189.018L192.394 149.162L195.814 139.22H200.506L201.81 155.059ZM214.967 155.278C210.308 155.278 206.866 152.099 206.866 147.134C206.866 142.157 210.308 139 214.967 139C219.614 139 223.056 142.157 223.056 147.134C223.056 152.099 219.614 155.278 214.967 155.278ZM214.967 152.264C217.696 152.264 219.79 150.345 219.79 147.134C219.79 143.933 217.696 142.026 214.967 142.026C212.237 142.026 210.144 143.933 210.144 147.134C210.144 150.345 212.237 152.264 214.967 152.264ZM237.287 146.695C239.074 147.188 240.269 148.361 240.269 150.619C240.269 153.294 238.646 155.059 235.303 155.059H228.781V139.22H233.911C237.331 139.22 239.129 140.864 239.129 143.561C239.129 144.953 238.526 146.092 237.287 146.695ZM233.944 141.948H231.949V145.675H234.086C235.49 145.675 236.103 144.842 236.103 143.768C236.103 142.716 235.413 141.948 233.944 141.948ZM234.689 152.242C236.465 152.242 237.079 151.288 237.079 150.258C237.079 149.205 236.476 148.208 234.623 148.208H231.949V152.242H234.689ZM245.895 155.059V139.22H249.183V155.059H245.895ZM259.26 152.154H264.225V155.059H255.971V139.22H259.26V152.154ZM278.621 142.113H272.745V145.709H277.952V148.57H272.745V152.154H278.621V155.059H269.435V139.22H278.621V142.113ZM285.091 146.366L284.773 139.219H287.754L287.349 146.366H285.091ZM299.848 155.278C296.45 155.278 293.797 153.645 293.314 150.674L296.713 149.896C296.932 151.672 298.236 152.592 299.979 152.592C301.316 152.592 302.38 152 302.369 150.663C302.358 149.172 300.604 148.701 298.675 148.109C296.351 147.386 293.863 146.531 293.863 143.615C293.863 140.666 296.274 139 299.453 139C302.237 139 305.043 140.129 305.679 143.165L302.5 143.955C302.204 142.376 301.141 141.686 299.65 141.686C298.324 141.686 297.195 142.234 297.195 143.538C297.195 144.755 298.751 145.16 300.549 145.697C302.939 146.421 305.767 147.342 305.767 150.499C305.767 153.864 302.95 155.278 299.848 155.278ZM325.295 155.278C321.897 155.278 319.244 153.645 318.762 150.674L322.16 149.896C322.379 151.672 323.683 152.592 325.426 152.592C326.764 152.592 327.827 152 327.816 150.663C327.805 149.172 326.051 148.701 324.122 148.109C321.798 147.386 319.31 146.531 319.31 143.615C319.31 140.666 321.721 139 324.9 139C327.685 139 330.491 140.129 331.127 143.165L327.948 143.955C327.652 142.376 326.588 141.686 325.098 141.686C323.771 141.686 322.642 142.234 322.642 143.538C322.642 144.755 324.199 145.16 325.996 145.697C328.386 146.421 331.214 147.342 331.214 150.499C331.214 153.864 328.397 155.278 325.295 155.278ZM346.136 139.22V142.114H342.376V155.059H339.12V142.114H335.339V139.22H346.136ZM358.338 155.278C353.68 155.278 350.238 152.099 350.238 147.134C350.238 142.157 353.68 139 358.338 139C362.986 139 366.428 142.157 366.428 147.134C366.428 152.099 362.986 155.278 358.338 155.278ZM358.338 152.264C361.068 152.264 363.162 150.345 363.162 147.134C363.162 143.933 361.068 142.026 358.338 142.026C355.609 142.026 353.515 143.933 353.515 147.134C353.515 150.345 355.609 152.264 358.338 152.264ZM380.516 155.059L376.395 148.087H375.441V155.059H372.153V139.22H377.897C381.481 139.22 382.994 141.335 382.994 143.955C382.994 146.082 381.788 147.463 379.639 147.923L384.408 155.059L380.516 155.059ZM375.441 141.948V145.73H377.381C379.135 145.73 379.848 144.985 379.848 143.845C379.848 142.716 379.135 141.948 377.381 141.948L375.441 141.948ZM398.705 142.113H392.829V145.709H398.036V148.57H392.829V152.154H398.705V155.059H389.519V139.22H398.705V142.113Z" fill="white"/>
</g>
<defs>
<clipPath id="clip0_105_2">
<rect width="396" height="171.095" fill="white"/>
</clipPath>
</defs>
</svg>
