<svg width="168" height="172" viewBox="0 0 168 172" fill="none" xmlns="http://www.w3.org/2000/svg">
<path d="M157.562 0H9.6664C4.32779 0 0 4.32779 0 9.6664V161.429C0 166.767 4.32779 171.095 9.6664 171.095H157.562C162.901 171.095 167.229 166.767 167.229 161.429V9.6664C167.229 4.32779 162.901 0 157.562 0Z" fill="#0D3934"/>
<path d="M90.7455 30.8283L120.522 61.8011C120.366 62.8936 120.4 64.0382 120.678 65.1828C121.84 69.9171 126.643 72.8132 131.378 71.6513C136.112 70.4894 139.008 65.6857 137.846 60.9513C136.684 56.2343 131.898 53.3382 127.181 54.4828L96.4337 22.4695C93.9191 19.8509 90.1559 18.7583 86.6181 19.6254L40.7486 30.9497C37.2109 31.8168 34.3841 34.5395 33.3783 38.0252L19.4874 86.0278C19.2966 86.6868 19.2793 87.3978 19.4527 88.0568C19.6088 88.7158 19.9556 89.3401 20.4412 89.843C21.4297 90.8662 22.8344 91.2824 24.2218 90.9356L25.453 90.6234C27.4647 90.1205 29.0602 88.5944 29.6324 86.6001L42.3094 42.7769C42.7083 41.4243 43.7835 40.3838 45.1535 40.0369L86.965 29.7184C88.3176 29.4063 89.7744 29.8225 90.7455 30.8283ZM130.008 57.4136C132.28 57.7084 134.239 59.3559 134.811 61.697C134.881 61.9745 134.933 62.2693 134.95 62.5468C134.985 62.8936 134.985 63.2405 134.95 63.5873C134.725 65.9458 133.06 67.9922 130.632 68.5991C127.979 69.2581 125.291 67.9228 124.129 65.5643C123.955 65.2174 123.817 64.8359 123.713 64.4371C122.95 61.3849 124.822 58.2807 127.892 57.5176C128.62 57.3442 129.331 57.3095 130.008 57.4136Z" fill="white"/>
<path d="M134.17 132.712L148.061 84.6924C148.251 84.0161 148.269 83.3051 148.113 82.6287C147.939 81.9524 147.61 81.3281 147.124 80.8252C146.136 79.7847 144.696 79.3858 143.309 79.7153L141.609 80.1315C139.945 80.5477 138.609 81.8137 138.141 83.4612L125.273 127.926C124.892 129.227 123.851 130.215 122.551 130.545L80.5311 140.915C79.2305 141.245 77.8431 140.828 76.9066 139.857L48.3964 109.578C48.7086 108.26 48.7259 106.838 48.3791 105.433C47.2172 100.699 42.4135 97.803 37.6791 98.9649C32.9448 100.127 30.0486 104.931 31.2106 109.665C32.2684 113.948 36.3091 116.74 40.5752 116.359L71.2185 148.233C73.6984 150.817 77.3922 151.875 80.8606 151.025L126.938 139.649C130.407 138.817 133.181 136.146 134.17 132.712ZM36.7426 112.388C35.9623 111.902 35.3033 111.226 34.835 110.411C34.5749 109.96 34.3668 109.457 34.2454 108.936C34.2281 108.884 34.2107 108.815 34.2107 108.763C33.5691 105.763 35.4247 102.763 38.4248 102.017C41.477 101.254 44.5812 103.127 45.3443 106.196C45.4136 106.491 45.4657 106.786 45.483 107.064C45.7258 109.821 43.9396 112.422 41.1648 113.099C39.5867 113.48 38.0086 113.185 36.7426 112.388Z" fill="white"/>
<path d="M78.5021 110.012L61.9752 42.6729C61.6804 41.4937 63.8828 40.4185 65.2181 41.0948L68.357 42.6902C70.8716 43.9562 72.5191 45.8465 73.0567 48.0836L89.4622 114.92C89.757 116.099 87.5546 117.174 86.2193 116.498L82.5254 114.625C80.3924 113.532 78.9703 111.919 78.5021 110.012Z" fill="white"/>
<path d="M59.8248 87.0683L49.593 45.3782C49.4196 44.6499 51.6567 43.7654 52.9054 44.0776L55.8362 44.8233C58.1773 45.4129 59.634 46.4881 59.9635 47.8581L70.1259 89.2534C70.2994 89.9818 68.0622 90.8662 66.8136 90.554L63.3626 89.6869C61.3509 89.1667 60.1196 88.2649 59.8248 87.0683Z" fill="white"/>
<path d="M108.972 124.076L98.7402 82.386C98.5668 81.6576 100.804 80.7732 102.052 81.0853L104.983 81.831C107.324 82.4207 108.781 83.4959 109.111 84.8659L119.273 126.261C119.446 126.99 117.209 127.874 115.961 127.562L112.51 126.695C110.498 126.157 109.267 125.255 108.972 124.076Z" fill="white"/>
<path d="M96.3643 122.411L79.8374 55.0897C79.5426 53.9105 81.7451 52.8353 83.0804 53.5116L86.2193 55.1071C88.7339 56.373 90.3814 58.2633 90.919 60.5004L107.324 127.336C107.619 128.516 105.417 129.591 104.082 128.914L100.388 127.042C98.2546 125.932 96.8326 124.301 96.3643 122.411Z" fill="white"/>
</svg>
